<svg width="55" height="144" viewBox="0 0 55 144" fill="none" xmlns="http://www.w3.org/2000/svg">
<path d="M26.5569 66.9172L33.1017 67.0069V85.0276H26.5569V66.9172ZM27.6328 65.3034V19.3103L32.1155 18.2345V65.4828L27.6328 65.3034ZM26.5569 0.931028H33.1017V16.8897L26.5569 17.9655V0.931028ZM46.281 28.9931C46.1017 28.6942 45.4741 28.246 44.3983 27.6483C43.3224 26.9908 41.9776 26.3034 40.3638 25.5862C38.75 24.869 36.9868 24.2414 35.0741 23.7034C33.1615 23.1655 31.2488 22.8965 29.3362 22.8965C26.8259 22.8965 24.8833 23.3448 23.5086 24.2414C22.1937 25.0782 21.5362 26.3931 21.5362 28.1862C21.5362 29.6207 22.0442 30.7563 23.0603 31.5931C24.0764 32.4299 25.5707 33.177 27.5431 33.8345C29.5155 34.4322 31.9362 35.1494 34.8052 35.9862C38.8695 37.0621 42.396 38.377 45.3845 39.931C48.373 41.4253 50.6443 43.3678 52.1983 45.7586C53.8121 48.1494 54.619 51.3172 54.619 55.2621C54.619 58.8483 53.9615 61.8966 52.6466 64.4069C51.3914 66.8575 49.6282 68.8598 47.3569 70.4138C45.0856 71.908 42.5155 73.0138 39.6465 73.731C36.7776 74.3885 33.819 74.7172 30.7707 74.7172C27.6626 74.7172 24.4649 74.4184 21.1776 73.8207C17.95 73.1632 14.8419 72.2667 11.8534 71.131C8.86494 69.9356 6.11551 68.5011 3.60517 66.8276L10.0603 54.0069C10.3592 54.3057 11.1362 54.8736 12.3914 55.7103C13.7063 56.4874 15.3201 57.3241 17.2328 58.2207C19.2052 59.0575 21.3868 59.8046 23.7776 60.4621C26.1684 61.1195 28.5891 61.4483 31.0397 61.4483C33.7293 61.4483 35.7017 61.0299 36.9569 60.1931C38.2121 59.3563 38.8397 58.1908 38.8397 56.6966C38.8397 55.0828 38.1523 53.8276 36.7776 52.931C35.4626 52.0345 33.6397 51.2276 31.3086 50.5103C29.0374 49.7931 26.4075 48.9862 23.419 48.0897C19.5339 46.8943 16.3063 45.5494 13.7362 44.0552C11.2259 42.5609 9.3431 40.7379 8.08793 38.5862C6.89252 36.4345 6.29482 33.7448 6.29482 30.5172C6.29482 26.0345 7.3408 22.269 9.43275 19.2207C11.5845 16.1126 14.4534 13.7816 18.0396 12.2276C21.6259 10.6138 25.5408 9.80689 29.7845 9.80689C32.8328 9.80689 35.7316 10.1655 38.481 10.8828C41.2305 11.6 43.8305 12.4965 46.281 13.5724C48.7316 14.6483 50.8833 15.7241 52.7362 16.8L46.281 28.9931Z" fill="url(#paint0_linear_1_467)" fill-opacity="0.7"/>
<defs>
<linearGradient id="paint0_linear_1_467" x1="47.0102" y1="16.1061" x2="-9.35393" y2="26.3733" gradientUnits="userSpaceOnUse">
<stop stop-color="white"/>
<stop offset="1" stop-color="#999999"/>
</linearGradient>
</defs>
</svg>
